<?xml version="1.0" standalone="no"?>
<!DOCTYPE svg PUBLIC "-//W3C//DTD SVG 20010904//EN"
 "http://www.w3.org/TR/2001/REC-SVG-20010904/DTD/svg10.dtd">
<svg version="1.0" xmlns="http://www.w3.org/2000/svg"
 width="1920.000000pt" height="1920.000000pt" viewBox="0 0 1920.000000 1920.000000"
 preserveAspectRatio="xMidYMid meet">
<metadata>
Created by potrace 1.11, written by Peter Selinger 2001-2013
</metadata>
<g transform="translate(0.000000,1920.000000) scale(0.100000,-0.100000)"
fill="#000000" stroke="none">
<path d="M0 9600 l0 -9600 9600 0 9600 0 0 9600 0 9600 -9600 0 -9600 0 0
-9600z m7575 4140 c668 -73 1308 -296 1844 -644 l103 -67 -159 -157 c-330
-328 -620 -716 -823 -1105 -40 -75 -75 -137 -80 -137 -5 0 -44 21 -87 47 -251
149 -579 263 -892 310 -160 24 -512 24 -672 0 -531 -79 -1013 -320 -1385 -691
-371 -372 -612 -854 -691 -1385 -24 -160 -24 -512 0 -672 79 -531 320 -1013
691 -1385 372 -371 854 -612 1385 -691 160 -24 512 -24 672 0 321 48 647 163
908 320 52 31 97 57 100 57 3 0 31 -48 61 -106 207 -400 576 -877 915 -1184
57 -52 105 -98 105 -101 0 -10 -238 -163 -359 -230 -902 -504 -1932 -659
-2939 -443 -1058 226 -1995 864 -2599 1769 -568 851 -806 1900 -662 2910 127
892 523 1696 1149 2339 716 735 1646 1169 2690 1256 132 11 592 5 725 -10z
m5430 0 c917 -100 1735 -467 2412 -1082 l123 -112 -472 -475 c-259 -262 -538
-543 -619 -625 l-148 -149 -78 69 c-383 342 -815 547 -1312 621 -160 24 -512
24 -672 0 -531 -79 -1013 -320 -1385 -691 -371 -372 -612 -854 -691 -1385 -24
-160 -24 -512 0 -672 79 -531 320 -1013 691 -1385 372 -371 854 -612 1385
-691 160 -24 512 -24 672 0 493 73 925 277 1305 614 39 35 75 63 80 63 5 0
288 -279 629 -621 l620 -620 -46 -42 c-26 -23 -89 -80 -141 -127 -484 -435
-1112 -765 -1763 -925 -632 -155 -1258 -165 -1893 -29 -1058 226 -2001 868
-2596 1768 -381 574 -599 1173 -683 1876 -24 204 -24 695 1 905 112 953 510
1796 1166 2469 716 735 1646 1169 2690 1256 132 11 592 5 725 -10z"/>
</g>
</svg>
